<?xml version="1.0" encoding="utf-8"?>
<!-- Generator: Adobe Illustrator 15.1.0, SVG Export Plug-In . SVG Version: 6.00 Build 0)  -->
<!DOCTYPE svg PUBLIC "-//W3C//DTD SVG 1.1//EN" "http://www.w3.org/Graphics/SVG/1.1/DTD/svg11.dtd">
<svg version="1.1" id="Layer_1" xmlns="http://www.w3.org/2000/svg" xmlns:xlink="http://www.w3.org/1999/xlink" x="0px" y="0px"
	 width="60px" height="56px" viewBox="0 0 60 56" enable-background="new 0 0 60 56" xml:space="preserve">
<rect fill="#FFFFFF" width="60" height="56"/>
<path fill="#2C2C2C" d="M43.718,40.021c0,1.154-0.956,2.11-2.11,2.11H18.392c-1.155,0-2.11-0.956-2.11-2.11V18.916
	c0-1.155,0.956-2.11,2.11-2.11h2.11v-1.583c0-1.452,1.188-2.638,2.638-2.638h1.056c1.451,0,2.638,1.187,2.638,2.638v1.583h6.331
	v-1.583c0-1.452,1.186-2.638,2.638-2.638h1.057c1.453,0,2.638,1.187,2.638,2.638v1.583h2.11c1.156,0,2.111,0.955,2.111,2.11v21.105
	H43.718z M23.141,27.885v-4.75h-4.749v4.75H23.141z M23.141,34.217v-5.277h-4.749v5.277H23.141z M23.141,40.021v-4.749h-4.749v4.749
	H23.141z M24.723,15.221c0-0.28-0.247-0.527-0.528-0.527h-1.056c-0.281,0-0.528,0.248-0.528,0.527v4.749
	c0,0.28,0.247,0.528,0.528,0.528h1.056c0.281,0,0.528-0.249,0.528-0.528V15.221z M29.472,27.885v-4.75h-5.277v4.75H29.472z
	 M29.472,34.217v-5.277h-5.277v5.277H29.472z M29.472,40.021v-4.749h-5.277v4.749H29.472z M35.804,27.885v-4.75h-5.277v4.75H35.804z
	 M35.804,34.217v-5.277h-5.277v5.277H35.804z M35.804,40.021v-4.749h-5.277v4.749H35.804z M37.387,15.221
	c0-0.28-0.246-0.527-0.527-0.527h-1.056c-0.281,0-0.527,0.248-0.527,0.527v4.749c0,0.28,0.246,0.528,0.527,0.528h1.056
	c0.281,0,0.527-0.249,0.527-0.528V15.221z M41.607,27.885v-4.75h-4.748v4.75H41.607z M41.607,34.217v-5.277h-4.748v5.277H41.607z
	 M41.607,40.021v-4.749h-4.748v4.749H41.607z"/>
</svg>
