<?xml version="1.0" encoding="utf-8"?>
<!-- Generator: Adobe Illustrator 15.1.0, SVG Export Plug-In . SVG Version: 6.00 Build 0)  -->
<!DOCTYPE svg PUBLIC "-//W3C//DTD SVG 1.1//EN" "http://www.w3.org/Graphics/SVG/1.1/DTD/svg11.dtd">
<svg version="1.1" id="Layer_1" xmlns="http://www.w3.org/2000/svg" xmlns:xlink="http://www.w3.org/1999/xlink" x="0px" y="0px"
	 width="40px" height="40px" viewBox="-5 -5 40 40" enable-background="new -5 -5 40 40" xml:space="preserve">
<path fill-rule="evenodd" clip-rule="evenodd" fill="#FFFFFF" d="M32.693,32.683c-0.309,0.309-0.809,0.309-1.117,0l-6.983-6.983
	c0.389-0.355,0.761-0.728,1.116-1.116l6.984,6.982C33.001,31.874,33.001,32.374,32.693,32.683z M12.881,28.678
	c-8.725,0-15.798-7.073-15.798-15.795c0-8.725,7.073-15.797,15.798-15.797c8.733,0,15.807,7.072,15.807,15.797
	C28.688,21.604,21.614,28.678,12.881,28.678z M12.881-1.334c-7.853,0-14.218,6.365-14.218,14.217c0,7.85,6.365,14.215,14.218,14.215
	c7.861,0,14.227-6.365,14.227-14.215C27.107,5.031,20.742-1.334,12.881-1.334z M19.999,13.671h-6.33v6.318
	c0,0.436-0.353,0.789-0.789,0.789c-0.437,0-0.79-0.354-0.79-0.789v-6.318H5.771c-0.437,0-0.79-0.352-0.79-0.788
	c0-0.436,0.354-0.789,0.79-0.789h6.319V5.774c0-0.437,0.354-0.79,0.79-0.79c0.436,0,0.789,0.354,0.789,0.79v6.319h6.33
	c0.437,0,0.79,0.354,0.79,0.789C20.789,13.319,20.436,13.671,19.999,13.671z"/>
</svg>
