<?xml version="1.0" encoding="utf-8"?>
<!-- Generator: Adobe Illustrator 15.1.0, SVG Export Plug-In . SVG Version: 6.00 Build 0)  -->
<!DOCTYPE svg PUBLIC "-//W3C//DTD SVG 1.1//EN" "http://www.w3.org/Graphics/SVG/1.1/DTD/svg11.dtd">
<svg version="1.1" id="Layer_1" xmlns="http://www.w3.org/2000/svg" xmlns:xlink="http://www.w3.org/1999/xlink" x="0px" y="0px"
	 width="175px" height="24px" viewBox="0 0 175 24" enable-background="new 0 0 175 24" xml:space="preserve">
<g>
	<g>
		<path fill="#D6D1C8" d="M10.723,0.134H1.589c-0.494,0-0.898,0.404-0.898,0.897v9.627c0,0.494,0.404,0.897,0.898,0.897h9.134
			c0.494,0,0.898-0.403,0.898-0.897V1.032C11.622,0.539,11.217,0.134,10.723,0.134z M9.13,8.082L8.429,8.783
			c-0.206,0.206-0.52,0.206-0.726,0L6.157,7.236L4.609,8.783c-0.205,0.206-0.521,0.206-0.726,0L3.182,8.082
			c-0.205-0.205-0.205-0.52,0-0.725L4.73,5.809L3.254,4.334c-0.205-0.206-0.205-0.521,0-0.726l0.701-0.701
			c0.206-0.206,0.521-0.205,0.726,0l1.476,1.475l1.475-1.475c0.205-0.206,0.52-0.205,0.725,0l0.701,0.701
			c0.206,0.205,0.206,0.52,0,0.726L7.583,5.809L9.13,7.357C9.335,7.562,9.335,7.876,9.13,8.082z M18.828,9.335
			c-1.031,0-1.871,0.84-1.871,1.871c0,1.032,0.84,1.872,1.871,1.872c1.032,0,1.872-0.84,1.872-1.872
			C20.7,10.175,19.86,9.335,18.828,9.335z M22.833,0.134h-9.135c-0.493,0-0.897,0.404-0.897,0.897v21.938
			c0,0.494,0.404,0.897,0.897,0.897h9.135c0.494,0,0.897-0.403,0.897-0.897V1.032C23.73,0.539,23.327,0.134,22.833,0.134z
			 M18.828,14.559c-0.522,0-1.017-0.124-1.458-0.339l-1.47,1.632c-0.176,0.194-0.418,0.294-0.661,0.294
			c-0.211,0-0.424-0.075-0.594-0.228c-0.364-0.329-0.395-0.891-0.065-1.255l1.452-1.613c-0.351-0.529-0.556-1.163-0.556-1.844
			c0-1.848,1.504-3.352,3.352-3.352c1.849,0,3.353,1.504,3.353,3.352C22.18,13.055,20.676,14.559,18.828,14.559z M10.723,12.445
			H1.589c-0.494,0-0.898,0.404-0.898,0.897v9.627c0,0.494,0.404,0.897,0.898,0.897h9.134c0.494,0,0.898-0.403,0.898-0.897v-9.627
			C11.622,12.849,11.217,12.445,10.723,12.445z M6.156,14.412c0.532,0,0.964,0.432,0.964,0.963c0,0.532-0.432,0.963-0.964,0.963
			c-0.531,0-0.963-0.431-0.963-0.963C5.193,14.843,5.625,14.412,6.156,14.412z M6.156,21.901c-0.531,0-0.963-0.432-0.963-0.963
			c0-0.532,0.432-0.964,0.963-0.964c0.532,0,0.964,0.432,0.964,0.964C7.12,21.469,6.688,21.901,6.156,21.901z M9.815,18.652
			c0,0.291-0.223,0.513-0.513,0.513H3.01c-0.291,0-0.513-0.222-0.513-0.513V17.66c0-0.29,0.222-0.513,0.513-0.513h6.292
			c0.29,0,0.513,0.223,0.513,0.513V18.652z M42.681,8.292h-1.042c-0.503,0-0.916,0.233-1.258,0.97
			c-0.396,0.845-1.078,1.384-2.155,1.384h-1.743c-2.587,0-3.288-0.952-3.288-3.881s0.701-3.881,3.288-3.881h1.563
			c1.077,0,1.76,0.539,2.155,1.384c0.342,0.736,0.755,0.971,1.258,0.971h1.042c0.233,0,0.898-0.162,0.898-0.971
			c0-2.551-2.605-3.862-5.049-3.862h-1.958c-4.294,0-6.504,1.994-6.504,6.359c0,4.366,2.21,6.36,6.504,6.36h2.138
			c2.443,0,5.049-1.312,5.049-3.863C43.58,8.453,42.915,8.292,42.681,8.292z M56.031,13.052c0.467,0,0.845-0.377,0.845-0.826V1.303
			c0-0.468-0.378-0.827-0.845-0.827h-1.635c-0.449,0-0.826,0.359-0.826,0.827V6.37h-3.396c-1.384,0-2.12-0.737-2.12-2.12V1.303
			c0-0.468-0.378-0.827-0.827-0.827h-1.635c-0.467,0-0.844,0.378-0.844,0.827V4.25c0,3.216,2.264,4.599,5.426,4.599h3.396v3.396
			c0,0.449,0.377,0.809,0.826,0.809H56.031z M60.057,13.052h10.079c0.467,0,0.827-0.377,0.827-0.826v-0.845
			c0-0.449-0.36-0.809-0.81-0.809h-7.617V7.986h6.575c0.449,0,0.827-0.377,0.827-0.826V6.333c0-0.449-0.378-0.827-0.827-0.827
			h-6.575V2.956h7.636c0.449,0,0.826-0.359,0.826-0.826V1.303c0-0.468-0.377-0.827-0.826-0.827H60.057
			c-0.449,0-0.826,0.359-0.826,0.809v10.924C59.231,12.675,59.59,13.052,60.057,13.052z M85.132,2.129V1.303
			c0-0.468-0.359-0.827-0.826-0.827H73.167c-0.468,0-0.827,0.359-0.827,0.827v0.826c0,0.467,0.359,0.826,0.827,0.826h3.916v9.288
			c0,0.449,0.377,0.809,0.826,0.809h1.653c0.449,0,0.826-0.359,0.826-0.809V2.956h3.917C84.773,2.956,85.132,2.596,85.132,2.129z
			 M99.274,6.764c0-4.671-2.568-6.558-7.061-6.558c-4.491,0-7.061,1.887-7.061,6.558s2.569,6.558,7.061,6.558
			C96.706,13.322,99.274,11.435,99.274,6.764z M92.213,10.951c-2.695,0-3.755-1.491-3.755-4.187c0-2.694,1.06-4.186,3.755-4.186
			s3.755,1.491,3.755,4.186C95.968,9.459,94.909,10.951,92.213,10.951z M101.417,13.052h7.547c2.461,0,4.652-1.275,4.652-3.772
			c0-1.186-0.503-2.281-1.689-2.91c0.881-0.719,1.187-1.42,1.187-2.318c0-2.604-2.317-3.575-4.563-3.575h-7.133
			c-0.467,0-0.826,0.378-0.826,0.827v10.923C100.59,12.675,100.95,13.052,101.417,13.052z M103.896,2.848h4.689
			c0.736,0,1.222,0.449,1.222,1.257c0,0.809-0.485,1.258-1.222,1.258h-4.689V2.848z M103.896,7.663h5.013
			c0.934,0,1.401,0.611,1.401,1.509c0,0.898-0.468,1.51-1.401,1.51h-5.013V7.663z M121.755,0.207c-4.491,0-7.061,1.887-7.061,6.558
			s2.569,6.558,7.061,6.558s7.061-1.887,7.061-6.558S126.247,0.207,121.755,0.207z M121.755,10.951
			c-2.694,0-3.755-1.491-3.755-4.187c0-2.694,1.061-4.186,3.755-4.186s3.755,1.491,3.755,4.186
			C125.51,9.459,124.45,10.951,121.755,10.951z M157.545,0.476h-1.635c-0.449,0-0.826,0.359-0.826,0.827v3.952h-6.037V1.303
			c0-0.468-0.377-0.827-0.826-0.827h-1.635c-0.467,0-0.844,0.359-0.844,0.827v10.923c0,0.449,0.377,0.826,0.844,0.826h1.635
			c0.449,0,0.826-0.359,0.826-0.809V7.735h6.037v4.509c0,0.449,0.377,0.809,0.826,0.809h1.635c0.468,0,0.846-0.377,0.846-0.826
			V1.303C158.391,0.835,158.013,0.476,157.545,0.476z M167.249,0.207c-4.492,0-7.061,1.887-7.061,6.558s2.568,6.558,7.061,6.558
			s7.061-1.887,7.061-6.558S171.741,0.207,167.249,0.207z M167.249,10.951c-2.695,0-3.755-1.491-3.755-4.187
			c0-2.694,1.06-4.186,3.755-4.186s3.755,1.491,3.755,4.186C171.003,9.459,169.944,10.951,167.249,10.951z M143.368,10.821h-0.142
			V1.285c0-0.449-0.378-0.809-0.827-0.809h-4.742c-2.552,0-5.013,0.646-5.695,3.449l-1.635,6.647h-0.684
			c-0.35,0-0.654,0.221-0.771,0.53c-0.041,0.076-0.064,0.162-0.064,0.257v3.886c0,0.306,0.232,0.539,0.539,0.539h1.523
			c0.305,0,0.538-0.233,0.538-0.539v-2.193h9.897v2.193c0,0.306,0.233,0.539,0.539,0.539h1.523c0.305,0,0.539-0.233,0.539-0.539
			V11.36C143.907,11.054,143.672,10.821,143.368,10.821z M139.92,10.573h-6.217l1.474-5.893c0.251-1.06,1.006-1.725,2.12-1.725
			h2.623V10.573z M31.924,18.507c0-0.307,0.229-0.491,0.756-0.491h1.291c0.439,0,0.773,0.141,0.913,0.438
			c0.142,0.29,0.334,0.404,0.58,0.404h0.51c0.114,0,0.439-0.079,0.439-0.474c0-0.94-1.187-1.582-2.293-1.582h-1.089
			c-2.108,0-2.724,0.738-2.724,1.792c0,2.275,4.647,1.704,4.647,2.724c0,0.308-0.229,0.492-0.756,0.492h-1.502
			c-0.439,0-0.773-0.141-0.914-0.439c-0.141-0.29-0.334-0.404-0.579-0.404h-0.51c-0.114,0-0.439,0.079-0.439,0.475
			c0,0.939,1.186,1.581,2.293,1.581h1.3c2.108,0,2.724-0.738,2.724-1.792C36.572,18.938,31.924,19.527,31.924,18.507z
			 M41.852,21.319H41.21c-0.22,0-0.369,0.123-0.492,0.316c-0.149,0.237-0.474,0.404-0.922,0.404c-0.879,0-1.169-0.431-1.169-1.397
			c0-0.975,0.29-1.405,1.125-1.405c0.448,0,0.773,0.167,0.922,0.404c0.123,0.193,0.272,0.316,0.492,0.316h0.642
			c0.149,0,0.263-0.114,0.263-0.264c0-1.002-0.913-1.493-2.424-1.493c-1.616,0-2.548,0.825-2.548,2.441
			c0,1.607,0.923,2.434,2.592,2.434c1.511,0,2.424-0.492,2.424-1.493C42.115,21.433,42.001,21.319,41.852,21.319z M45.805,18.201
			c-0.658,0-1.098,0.281-1.502,0.623v-1.722c0-0.149-0.114-0.264-0.264-0.264h-0.957c-0.149,0-0.264,0.114-0.264,0.264v5.622
			c0,0.149,0.114,0.264,0.264,0.264h0.957c0.149,0,0.264-0.114,0.264-0.264v-2.872c0.316-0.316,0.721-0.615,1.15-0.615
			c0.483,0,0.817,0.299,0.817,1.028v2.459c0,0.149,0.114,0.264,0.264,0.264h0.957c0.149,0,0.264-0.114,0.264-0.264v-2.459
			C47.755,18.806,46.948,18.201,45.805,18.201z M51.05,18.201c-1.555,0-2.504,0.86-2.504,2.441c0,1.59,0.94,2.434,2.504,2.434
			c1.406,0,2.346-0.316,2.346-1.229c0-0.149-0.114-0.264-0.264-0.264h-0.641c-0.221,0-0.378,0.088-0.492,0.229
			c-0.149,0.185-0.475,0.29-0.844,0.29c-0.72,0-1.036-0.308-1.098-1.011h3.232c0.149,0,0.264-0.114,0.264-0.264v-0.246
			C53.554,19.035,52.614,18.201,51.05,18.201z M50.049,20.185c0.035-0.658,0.369-1.01,1.001-1.01c0.65,0,0.967,0.352,0.993,1.01
			H50.049z M57.332,22.004h-0.158c-0.193,0-0.359,0.053-0.588,0.053c-0.448,0-0.756-0.316-0.756-0.914v-1.572h1.194
			c0.149,0,0.264-0.114,0.264-0.264v-0.51c0-0.149-0.114-0.264-0.264-0.264H55.83v-1.432c0-0.149-0.113-0.264-0.264-0.264h-0.957
			c-0.149,0-0.264,0.114-0.264,0.264v4.041c0,1.317,0.615,1.933,1.845,1.933c0.396,0,0.878-0.035,1.142-0.088
			c0.149-0.026,0.264-0.132,0.264-0.264v-0.457C57.595,22.118,57.481,22.004,57.332,22.004z M60.539,18.201
			c-1.66,0-2.591,0.816-2.591,2.433s0.931,2.442,2.591,2.442c1.661,0,2.592-0.826,2.592-2.442S62.2,18.201,60.539,18.201z
			 M60.539,22.101c-0.746,0-1.106-0.431-1.106-1.468c0-1.036,0.36-1.458,1.106-1.458c0.747,0,1.106,0.422,1.106,1.458
			C61.645,21.67,61.286,22.101,60.539,22.101z M68.674,18.288h-0.826c-0.237,0-0.483,0.149-0.579,0.378L66.1,21.336l-1.168-2.671
			c-0.097-0.229-0.343-0.378-0.58-0.378h-0.825c-0.202,0-0.272,0.167-0.177,0.378l1.854,3.944c0.104,0.229,0.342,0.378,0.579,0.378
			h0.633c0.237,0,0.475-0.149,0.58-0.378l1.854-3.944C68.947,18.455,68.875,18.288,68.674,18.288z M71.662,18.201
			c-1.66,0-2.592,0.816-2.592,2.433s0.932,2.442,2.592,2.442s2.592-0.826,2.592-2.442S73.322,18.201,71.662,18.201z M71.662,22.101
			c-0.747,0-1.106-0.431-1.106-1.468c0-1.036,0.359-1.458,1.106-1.458s1.106,0.422,1.106,1.458
			C72.768,21.67,72.409,22.101,71.662,22.101z M79.542,16.838h-0.958c-0.149,0-0.264,0.114-0.264,0.264v1.318
			c-0.36-0.114-0.711-0.22-1.238-0.22c-1.37,0-2.302,0.825-2.302,2.441c0,1.607,0.923,2.434,2.17,2.434
			c0.623,0,1.106-0.202,1.502-0.483v0.132c0,0.149,0.114,0.264,0.264,0.264h0.826c0.148,0,0.264-0.114,0.264-0.264v-5.622
			C79.806,16.953,79.691,16.838,79.542,16.838z M78.321,21.653c-0.308,0.193-0.702,0.387-1.019,0.387
			c-0.703,0-0.993-0.431-0.993-1.397c0-0.975,0.29-1.405,1.081-1.405c0.22,0,0.57,0.062,0.931,0.176V21.653z M83.847,18.201
			c-0.659,0-1.099,0.281-1.502,0.623v-0.272c0-0.149-0.114-0.264-0.264-0.264h-0.958c-0.148,0-0.264,0.114-0.264,0.264v4.173
			c0,0.149,0.115,0.264,0.264,0.264h0.958c0.149,0,0.264-0.114,0.264-0.264v-2.872c0.315-0.316,0.72-0.615,1.15-0.615
			c0.483,0,0.816,0.299,0.816,1.028v2.459c0,0.149,0.114,0.264,0.264,0.264h0.958c0.149,0,0.264-0.114,0.264-0.264v-2.459
			C85.797,18.806,84.989,18.201,83.847,18.201z M89.18,18.201c-1.66,0-2.592,0.816-2.592,2.433s0.932,2.442,2.592,2.442
			s2.591-0.826,2.591-2.442S90.84,18.201,89.18,18.201z M89.18,22.101c-0.747,0-1.107-0.431-1.107-1.468
			c0-1.036,0.36-1.458,1.107-1.458c0.746,0,1.106,0.422,1.106,1.458C90.287,21.67,89.926,22.101,89.18,22.101z M93.495,21.6h-0.527
			c-0.369,0-0.58,0.211-0.58,0.579v0.272c0,0.369,0.211,0.58,0.58,0.58h0.527c0.368,0,0.579-0.211,0.579-0.58v-0.272
			C94.074,21.811,93.863,21.6,93.495,21.6z M99.441,21.319H98.8c-0.22,0-0.369,0.123-0.492,0.316
			c-0.149,0.237-0.475,0.404-0.923,0.404c-0.878,0-1.168-0.431-1.168-1.397c0-0.975,0.29-1.405,1.125-1.405
			c0.447,0,0.772,0.167,0.922,0.404c0.123,0.193,0.272,0.316,0.492,0.316h0.641c0.149,0,0.264-0.114,0.264-0.264
			c0-1.002-0.914-1.493-2.424-1.493c-1.617,0-2.548,0.825-2.548,2.441c0,1.607,0.922,2.434,2.591,2.434
			c1.512,0,2.425-0.492,2.425-1.493C99.705,21.433,99.59,21.319,99.441,21.319z M102.736,18.201c-1.66,0-2.591,0.816-2.591,2.433
			s0.931,2.442,2.591,2.442c1.661,0,2.591-0.826,2.591-2.442S104.397,18.201,102.736,18.201z M102.736,22.101
			c-0.747,0-1.106-0.431-1.106-1.468c0-1.036,0.359-1.458,1.106-1.458s1.106,0.422,1.106,1.458
			C103.842,21.67,103.483,22.101,102.736,22.101z M112.075,18.201c-0.605,0-1.143,0.315-1.634,0.825
			c-0.334-0.544-0.809-0.825-1.511-0.825c-0.615,0-0.984,0.289-1.326,0.623v-0.272c0-0.149-0.115-0.264-0.264-0.264h-0.958
			c-0.149,0-0.264,0.114-0.264,0.264v4.173c0,0.149,0.114,0.264,0.264,0.264h0.958c0.148,0,0.264-0.114,0.264-0.264v-2.872
			c0.271-0.378,0.544-0.615,0.913-0.615c0.474,0,0.747,0.299,0.747,1.028v2.459c0,0.149,0.113,0.264,0.264,0.264h0.957
			c0.149,0,0.264-0.114,0.264-0.264v-2.459c0-0.123-0.01-0.246-0.026-0.369c0.308-0.422,0.649-0.659,0.939-0.659
			c0.475,0,0.747,0.299,0.747,1.028v2.459c0,0.149,0.114,0.264,0.264,0.264h0.957c0.149,0,0.264-0.114,0.264-0.264v-2.459
			C113.893,18.806,113.147,18.201,112.075,18.201z"/>
	</g>
</g>
</svg>
