<?xml version="1.0" encoding="utf-8"?>
<!-- Generator: Adobe Illustrator 15.1.0, SVG Export Plug-In . SVG Version: 6.00 Build 0)  -->
<!DOCTYPE svg PUBLIC "-//W3C//DTD SVG 1.1//EN" "http://www.w3.org/Graphics/SVG/1.1/DTD/svg11.dtd">
<svg version="1.1" id="Layer_1" xmlns="http://www.w3.org/2000/svg" xmlns:xlink="http://www.w3.org/1999/xlink" x="0px" y="0px"
	 width="260px" height="36px" viewBox="0 0 260 36" enable-background="new 0 0 260 36" xml:space="preserve">
<path fill="#009EE2" d="M0,20.01c0-0.739,0.605-1.344,1.345-1.344h13.679c0.739,0,1.345,0.605,1.345,1.344v14.416
	c0,0.74-0.605,1.346-1.345,1.346H1.346C0.605,35.772,0,35.167,0,34.426V20.01z"/>
<path fill="#E20613" d="M18.134,1.575c0-0.74,0.605-1.345,1.345-1.345h13.68c0.739,0,1.344,0.605,1.344,1.345v32.851
	c0,0.74-0.605,1.346-1.344,1.346h-13.68c-0.74,0-1.345-0.605-1.345-1.346V1.575z"/>
<path fill="#F29100" d="M0,1.575C0,0.835,0.605,0.23,1.346,0.23h13.679c0.739,0,1.345,0.605,1.345,1.345v14.416
	c0,0.739-0.605,1.345-1.345,1.345H1.346C0.605,17.336,0,16.73,0,15.991V1.575z"/>
<g>
	<path fill="#FFFFFF" d="M6.049,8.729L3.84,6.52c-0.308-0.308-0.308-0.778,0-1.086l1.05-1.05c0.307-0.308,0.778-0.308,1.086,0
		l2.209,2.208l2.208-2.208c0.307-0.308,0.778-0.308,1.086,0l1.05,1.05c0.308,0.308,0.308,0.778,0,1.086l-2.208,2.208l2.317,2.317
		c0.308,0.308,0.308,0.778,0,1.086l-1.05,1.05c-0.308,0.308-0.779,0.308-1.086,0l-2.317-2.317l-2.317,2.317
		c-0.308,0.308-0.778,0.308-1.086,0l-1.05-1.05c-0.308-0.308-0.308-0.779,0-1.086L6.049,8.729z"/>
</g>
<path fill="#FFFFFF" d="M27.162,11.793c-2.768,0-5.02,2.252-5.02,5.02c0,1.019,0.307,1.967,0.832,2.76l-2.175,2.416
	c-0.492,0.546-0.447,1.387,0.099,1.879c0.254,0.229,0.573,0.341,0.89,0.341c0.364,0,0.726-0.147,0.989-0.44l2.201-2.443
	c0.662,0.321,1.401,0.508,2.185,0.508c2.768,0,5.02-2.252,5.02-5.02C32.181,14.045,29.93,11.793,27.162,11.793z M27.162,19.615
	c-1.545,0-2.803-1.257-2.803-2.802s1.257-2.802,2.803-2.802c1.545,0,2.803,1.257,2.803,2.802S28.707,19.615,27.162,19.615z"/>
<g>
	<path fill="#FFFFFF" d="M12.896,25.708H3.474c-0.436,0-0.768,0.334-0.768,0.769v1.485c0,0.436,0.333,0.768,0.768,0.768h9.422
		c0.435,0,0.768-0.332,0.768-0.768v-1.485C13.664,26.042,13.331,25.708,12.896,25.708z"/>
	<circle fill="#FFFFFF" cx="8.185" cy="23.053" r="1.442"/>
	<circle fill="#FFFFFF" cx="8.185" cy="31.384" r="1.442"/>
</g>
<path fill="#3C3C3B" d="M53.466,0.635h2.933c3.659,0,7.56,1.964,7.56,5.784c0,1.211-0.996,1.453-1.345,1.453h-1.561
	c-0.753,0-1.372-0.35-1.883-1.453c-0.592-1.264-1.614-2.071-3.229-2.071H53.6c-3.874,0-4.923,1.426-4.923,5.811
	c0,4.386,1.049,5.812,4.923,5.812h2.61c1.614,0,2.637-0.807,3.229-2.071c0.511-1.104,1.13-1.453,1.883-1.453h1.561
	c0.35,0,1.345,0.242,1.345,1.453c0,3.82-3.901,5.785-7.56,5.785h-3.202c-6.431,0-9.74-2.987-9.74-9.525
	C43.726,3.622,47.035,0.635,53.466,0.635z"/>
<path fill="#3C3C3B" d="M65.978,1.98c0-0.673,0.565-1.238,1.264-1.238h2.449c0.672,0,1.237,0.538,1.237,1.238v4.412
	c0,2.072,1.103,3.175,3.175,3.175h5.085V1.98c0-0.7,0.565-1.238,1.237-1.238h2.448c0.7,0,1.265,0.538,1.265,1.238v16.358
	c0,0.673-0.564,1.237-1.265,1.237h-2.448c-0.672,0-1.237-0.538-1.237-1.21V13.28h-5.085c-4.735,0-8.125-2.072-8.125-6.888V1.98z"/>
<path fill="#3C3C3B" d="M105.289,1.98v1.237c0,0.7-0.565,1.238-1.238,1.238H92.617v3.82h9.847c0.672,0,1.238,0.565,1.238,1.238
	v1.237c0,0.673-0.565,1.238-1.238,1.238h-9.847v3.875h11.408c0.672,0,1.211,0.538,1.211,1.21v1.265c0,0.673-0.539,1.237-1.238,1.237
	H88.904c-0.699,0-1.237-0.564-1.237-1.264V1.954c0-0.673,0.565-1.211,1.237-1.211h15.147C104.724,0.743,105.289,1.281,105.289,1.98z
	"/>
<path fill="#3C3C3B" d="M125.217,0.743c0.699,0,1.237,0.538,1.237,1.238v1.237c0,0.7-0.538,1.238-1.237,1.238h-5.865v13.91
	c0,0.673-0.565,1.21-1.238,1.21h-2.475c-0.672,0-1.238-0.538-1.238-1.21V4.456h-5.865c-0.7,0-1.238-0.538-1.238-1.238V1.98
	c0-0.7,0.538-1.238,1.238-1.238H125.217z"/>
<path fill="#3C3C3B" d="M137.059,0.339c6.727,0,10.574,2.825,10.574,9.82c0,6.996-3.848,9.82-10.574,9.82
	c-6.726,0-10.574-2.824-10.574-9.82C126.485,3.164,130.333,0.339,137.059,0.339z M131.436,10.159c0,4.036,1.588,6.269,5.623,6.269
	s5.623-2.233,5.623-6.269s-1.588-6.269-5.623-6.269S131.436,6.124,131.436,10.159z"/>
<path fill="#3C3C3B" d="M149.604,1.98c0-0.673,0.538-1.238,1.238-1.238h10.68c3.363,0,6.835,1.453,6.835,5.354
	c0,1.345-0.458,2.395-1.776,3.471c1.776,0.942,2.529,2.583,2.529,4.358c0,3.74-3.282,5.65-6.969,5.65h-11.299
	c-0.7,0-1.238-0.564-1.238-1.237V1.98z M154.555,4.294v3.767h7.021c1.104,0,1.83-0.673,1.83-1.884c0-1.21-0.727-1.883-1.83-1.883
	H154.555z M154.555,11.504v4.521h7.506c1.398,0,2.098-0.915,2.098-2.26s-0.699-2.26-2.098-2.26H154.555z"/>
<path fill="#3C3C3B" d="M181.299,0.339c6.727,0,10.573,2.825,10.573,9.82c0,6.996-3.847,9.82-10.573,9.82s-10.573-2.824-10.573-9.82
	C170.726,3.164,174.573,0.339,181.299,0.339z M175.676,10.159c0,4.036,1.588,6.269,5.623,6.269s5.623-2.233,5.623-6.269
	s-1.588-6.269-5.623-6.269S175.676,6.124,175.676,10.159z"/>
<path fill="#3C3C3B" d="M231.211,11.612h-9.041v6.753c0,0.673-0.564,1.21-1.236,1.21h-2.449c-0.699,0-1.264-0.564-1.264-1.237V1.98
	c0-0.7,0.564-1.238,1.264-1.238h2.449c0.672,0,1.236,0.538,1.236,1.238v5.919h9.041V1.98c0-0.7,0.564-1.238,1.238-1.238h2.447
	c0.699,0,1.266,0.538,1.266,1.238v16.358c0,0.673-0.566,1.237-1.266,1.237h-2.447c-0.674,0-1.238-0.538-1.238-1.21V11.612z"/>
<path fill="#3C3C3B" d="M249.427,0.339c6.726,0,10.573,2.825,10.573,9.82c0,6.996-3.848,9.82-10.573,9.82
	c-6.727,0-10.573-2.824-10.573-9.82C238.854,3.164,242.701,0.339,249.427,0.339z M243.804,10.159c0,4.036,1.587,6.269,5.623,6.269
	s5.623-2.233,5.623-6.269s-1.587-6.269-5.623-6.269S243.804,6.124,243.804,10.159z"/>
<path fill="#3C3C3B" d="M213.665,16.234h-0.213V1.954c0-0.673-0.564-1.211-1.237-1.211h-7.103c-3.82,0-7.507,0.969-8.529,5.166
	l-2.447,9.955h-1.023c-0.525,0-0.98,0.33-1.156,0.794c-0.061,0.114-0.097,0.243-0.097,0.384v5.819c0,0.458,0.35,0.808,0.808,0.808
	h0.121h1.561h0.6c0.457,0,0.807-0.35,0.807-0.808v-3.284h14.821v3.284c0,0.458,0.35,0.808,0.808,0.808h2.281
	c0.457,0,0.807-0.35,0.807-0.808v-5.819C214.471,16.584,214.122,16.234,213.665,16.234z M208.501,15.863h-9.309l2.206-8.825
	c0.377-1.587,1.507-2.583,3.175-2.583h3.928V15.863z"/>
<g>
	<path fill="#009EE2" d="M48.432,25.194h1.631c1.658,0,3.434,0.96,3.434,2.367c0,0.592-0.487,0.711-0.658,0.711h-0.763
		c-0.368,0-0.658-0.172-0.868-0.605c-0.21-0.447-0.71-0.658-1.368-0.658h-1.934c-0.79,0-1.131,0.277-1.131,0.737
		c0,1.526,6.959,0.645,6.959,4.078c0,1.579-0.921,2.683-4.078,2.683h-1.947c-1.657,0-3.433-0.959-3.433-2.367
		c0-0.592,0.486-0.71,0.658-0.71h0.763c0.368,0,0.658,0.171,0.868,0.604c0.21,0.447,0.71,0.658,1.368,0.658h2.249
		c0.79,0,1.132-0.276,1.132-0.736c0-1.526-6.959-0.672-6.959-4.078C44.354,26.298,45.274,25.194,48.432,25.194z"/>
	<path fill="#009EE2" d="M56.813,30.942c0,1.447,0.434,2.092,1.75,2.092c0.671,0,1.158-0.25,1.381-0.605
		c0.185-0.289,0.408-0.473,0.737-0.473h0.96c0.224,0,0.395,0.17,0.395,0.395c0,1.499-1.368,2.236-3.631,2.236
		c-2.5,0-3.881-1.236-3.881-3.645c0-2.42,1.395-3.656,3.815-3.656c2.263,0,3.631,0.736,3.631,2.236c0,0.223-0.171,0.395-0.395,0.395
		h-0.96c-0.329,0-0.553-0.185-0.737-0.475c-0.224-0.354-0.71-0.604-1.381-0.604C57.247,28.837,56.813,29.482,56.813,30.942z"/>
	<path fill="#009EE2" d="M68.258,30.376c0-1.092-0.5-1.539-1.224-1.539c-0.645,0-1.25,0.447-1.723,0.921v4.302
		c0,0.224-0.171,0.395-0.395,0.395h-1.434c-0.224,0-0.395-0.171-0.395-0.395v-8.419c0-0.225,0.171-0.395,0.395-0.395h1.434
		c0.224,0,0.395,0.17,0.395,0.395v2.578c0.605-0.514,1.263-0.934,2.25-0.934c1.71,0,2.921,0.907,2.921,3.091v3.684
		c0,0.224-0.171,0.395-0.395,0.395h-1.434c-0.224,0-0.395-0.171-0.395-0.395V30.376z"/>
	<path fill="#009EE2" d="M73.93,31.614c0.092,1.052,0.565,1.512,1.644,1.512c0.552,0,1.039-0.157,1.263-0.434
		c0.171-0.211,0.408-0.342,0.737-0.342h0.96c0.224,0,0.394,0.17,0.394,0.395c0,1.367-1.407,1.842-3.512,1.842
		c-2.341,0-3.749-1.264-3.749-3.645c0-2.367,1.421-3.656,3.749-3.656c2.342,0,3.75,1.249,3.75,3.564v0.368
		c0,0.224-0.171,0.396-0.395,0.396H73.93z M73.916,30.258h2.986c-0.04-0.986-0.513-1.514-1.487-1.514
		C74.468,28.745,73.969,29.272,73.916,30.258z"/>
	<path fill="#009EE2" d="M83.112,34.586c-1.842,0-2.763-0.922-2.763-2.895v-6.051c0-0.225,0.171-0.395,0.395-0.395h1.434
		c0.224,0,0.395,0.17,0.395,0.395v2.144h1.789c0.224,0,0.395,0.171,0.395,0.396v0.762c0,0.225-0.171,0.396-0.395,0.396h-1.789v2.354
		c0,0.895,0.46,1.368,1.131,1.368c0.342,0,0.592-0.079,0.882-0.079h0.236c0.224,0,0.395,0.171,0.395,0.395v0.685
		c0,0.197-0.171,0.354-0.395,0.395C84.428,34.534,83.704,34.586,83.112,34.586z"/>
	<path fill="#009EE2" d="M93.506,30.929c0,2.421-1.395,3.657-3.881,3.657s-3.881-1.236-3.881-3.657s1.395-3.644,3.881-3.644
		S93.506,28.508,93.506,30.929z M91.282,30.929c0-1.552-0.539-2.185-1.657-2.185c-1.118,0-1.658,0.633-1.658,2.185
		s0.54,2.196,1.658,2.196C90.744,33.125,91.282,32.481,91.282,30.929z"/>
	<path fill="#009EE2" d="M97.479,34.455c-0.355,0-0.71-0.224-0.868-0.565l-2.776-5.906c-0.145-0.316-0.039-0.566,0.263-0.566h1.237
		c0.355,0,0.724,0.224,0.868,0.566l1.75,3.998l1.75-3.998c0.145-0.343,0.513-0.566,0.868-0.566h1.236
		c0.303,0,0.408,0.25,0.263,0.566l-2.776,5.906c-0.157,0.342-0.513,0.565-0.868,0.565H97.479z"/>
	<path fill="#009EE2" d="M110.163,30.929c0,2.421-1.395,3.657-3.881,3.657s-3.88-1.236-3.88-3.657s1.394-3.644,3.88-3.644
		S110.163,28.508,110.163,30.929z M107.939,30.929c0-1.552-0.54-2.185-1.658-2.185s-1.658,0.633-1.658,2.185s0.54,2.196,1.658,2.196
		S107.939,32.481,107.939,30.929z"/>
	<path fill="#009EE2" d="M110.953,30.942c0-2.42,1.395-3.656,3.447-3.656c0.79,0,1.316,0.157,1.855,0.328v-1.973
		c0-0.225,0.171-0.395,0.395-0.395h1.434c0.224,0,0.395,0.17,0.395,0.395v8.419c0,0.224-0.171,0.395-0.395,0.395h-1.237
		c-0.224,0-0.395-0.171-0.395-0.395v-0.197c-0.592,0.421-1.315,0.724-2.25,0.724C112.334,34.586,110.953,33.35,110.953,30.942z
		 M116.254,32.456V29.1c-0.539-0.171-1.065-0.263-1.395-0.263c-1.184,0-1.618,0.645-1.618,2.104c0,1.447,0.434,2.092,1.486,2.092
		C115.202,33.034,115.794,32.745,116.254,32.456z"/>
	<path fill="#009EE2" d="M125.227,30.376c0-1.092-0.5-1.539-1.224-1.539c-0.645,0-1.25,0.447-1.723,0.921v4.302
		c0,0.224-0.171,0.395-0.395,0.395h-1.434c-0.224,0-0.395-0.171-0.395-0.395v-6.249c0-0.223,0.171-0.395,0.395-0.395h1.434
		c0.224,0,0.395,0.172,0.395,0.395v0.408c0.605-0.514,1.263-0.934,2.25-0.934c1.71,0,2.92,0.907,2.92,3.091v3.684
		c0,0.224-0.171,0.395-0.395,0.395h-1.434c-0.224,0-0.395-0.171-0.395-0.395V30.376z"/>
	<path fill="#009EE2" d="M136.397,30.929c0,2.421-1.395,3.657-3.881,3.657c-2.486,0-3.881-1.236-3.881-3.657
		s1.395-3.644,3.881-3.644C135.002,27.286,136.397,28.508,136.397,30.929z M134.174,30.929c0-1.552-0.539-2.185-1.658-2.185
		c-1.117,0-1.657,0.633-1.657,2.185s0.54,2.196,1.657,2.196C133.635,33.125,134.174,32.481,134.174,30.929z"/>
	<path fill="#009EE2" d="M137.319,33.245c0-0.553,0.316-0.869,0.868-0.869h0.79c0.553,0,0.867,0.316,0.867,0.869v0.408
		c0,0.552-0.314,0.867-0.867,0.867h-0.79c-0.552,0-0.868-0.315-0.868-0.867V33.245z"/>
	<path fill="#009EE2" d="M143.055,30.942c0,1.447,0.434,2.092,1.75,2.092c0.67,0,1.157-0.25,1.381-0.605
		c0.184-0.289,0.408-0.473,0.736-0.473h0.961c0.223,0,0.395,0.17,0.395,0.395c0,1.499-1.368,2.236-3.631,2.236
		c-2.5,0-3.881-1.236-3.881-3.645c0-2.42,1.395-3.656,3.814-3.656c2.264,0,3.631,0.736,3.631,2.236c0,0.223-0.17,0.395-0.395,0.395
		h-0.96c-0.329,0-0.553-0.185-0.737-0.475c-0.223-0.354-0.71-0.604-1.381-0.604C143.489,28.837,143.055,29.482,143.055,30.942z"/>
	<path fill="#009EE2" d="M156.698,30.929c0,2.421-1.395,3.657-3.881,3.657s-3.881-1.236-3.881-3.657s1.395-3.644,3.881-3.644
		S156.698,28.508,156.698,30.929z M154.475,30.929c0-1.552-0.539-2.185-1.658-2.185c-1.118,0-1.658,0.633-1.658,2.185
		s0.54,2.196,1.658,2.196C153.936,33.125,154.475,32.481,154.475,30.929z"/>
	<path fill="#009EE2" d="M162.592,30.376c0-1.092-0.408-1.539-1.117-1.539c-0.553,0-0.961,0.354-1.369,0.921v4.302
		c0,0.224-0.171,0.395-0.395,0.395h-1.434c-0.225,0-0.395-0.171-0.395-0.395v-6.249c0-0.223,0.17-0.395,0.395-0.395h1.434
		c0.224,0,0.395,0.172,0.395,0.395v0.408c0.514-0.5,1.066-0.934,1.986-0.934c1.053,0,1.764,0.42,2.263,1.236
		c0.737-0.764,1.54-1.236,2.446-1.236c1.605,0,2.725,0.907,2.725,3.091v3.684c0,0.224-0.172,0.395-0.396,0.395h-1.434
		c-0.224,0-0.396-0.171-0.396-0.395v-3.684c0-1.092-0.406-1.539-1.117-1.539c-0.435,0-0.947,0.354-1.408,0.986
		c0.026,0.185,0.039,0.368,0.039,0.553v3.684c0,0.224-0.17,0.395-0.395,0.395h-1.434c-0.224,0-0.395-0.171-0.395-0.395V30.376z"/>
</g>
</svg>
