<?xml version="1.0" encoding="utf-8"?>
<!-- Generator: Adobe Illustrator 15.1.0, SVG Export Plug-In . SVG Version: 6.00 Build 0)  -->
<!DOCTYPE svg PUBLIC "-//W3C//DTD SVG 1.1//EN" "http://www.w3.org/Graphics/SVG/1.1/DTD/svg11.dtd">
<svg version="1.1" id="Layer_1" xmlns="http://www.w3.org/2000/svg" xmlns:xlink="http://www.w3.org/1999/xlink" x="0px" y="0px"
	 width="56px" height="56px" viewBox="0 0 56 56" enable-background="new 0 0 56 56" xml:space="preserve">
<rect fill="#939393" width="56" height="56"/>
<path fill="#FFFFFF" d="M33.879,26.291l-5.604,5.604c-0.071,0.072-0.18,0.119-0.275,0.119c-0.097,0-0.205-0.047-0.277-0.119
	l-5.604-5.604C22.048,26.218,22,26.11,22,26.014s0.048-0.204,0.119-0.276l0.602-0.602c0.072-0.072,0.168-0.12,0.277-0.12
	c0.096,0,0.204,0.048,0.275,0.12L28,29.861l4.725-4.725c0.072-0.072,0.181-0.12,0.277-0.12c0.096,0,0.204,0.048,0.275,0.12
	l0.602,0.602C33.951,25.81,34,25.918,34,26.014S33.951,26.218,33.879,26.291z"/>
</svg>
